<svg xmlns="http://www.w3.org/2000/svg" viewBox="0 0 60 60"><g fill="#F0C419"><path d="M30 0c-.55 0-1 .45-1 1v6c0 .55.45 1 1 1s1-.45 1-1V1c0-.55-.45-1-1-1zM30 52c-.55 0-1 .45-1 1v6c0 .55.45 1 1 1s1-.45 1-1v-6c0-.55-.45-1-1-1zM59 29h-6c-.55 0-1 .45-1 1s.45 1 1 1h6c.55 0 1-.45 1-1s-.45-1-1-1zM8 30c0-.55-.45-1-1-1H1c-.55 0-1 .45-1 1s.45 1 1 1h6c.55 0 1-.45 1-1zM46.26 14.74c.26 0 .52-.1.7-.3l5.75-5.73c.4-.38.4-1.02 0-1.4s-1.02-.4-1.4 0l-5.74 5.73c-.4.4-.4 1.02 0 1.4.2.2.45.3.7.3zM13.03 45.56L7.3 51.3c-.4.38-.4 1.02 0 1.4.2.2.44.3.7.3s.5-.1.7-.3l5.74-5.73c.4-.4.4-1.02 0-1.4s-1.02-.4-1.4 0zM46.97 45.56c-.4-.4-1.02-.4-1.4 0s-.4 1.02 0 1.4l5.72 5.75c.2.2.44.3.7.3s.5-.1.7-.3c.4-.38.4-1.02 0-1.4l-5.73-5.74zM8.7 7.3c-.38-.4-1.02-.4-1.4 0s-.4 1.02 0 1.4l5.73 5.74c.2.2.45.3.7.3s.52-.1.7-.3c.4-.4.4-1.02 0-1.4L8.72 7.28zM50.25 21.4c.16.4.53.6.92.6.13 0 .26 0 .4-.07l2.75-1.17c.5-.2.75-.8.53-1.3s-.8-.76-1.3-.54l-2.77 1.17c-.5.2-.75.8-.53 1.3zM9.75 38.6c-.22-.5-.8-.75-1.3-.53l-2.77 1.17c-.5.2-.75.8-.53 1.3.16.4.53.62.92.62.13 0 .26-.03.4-.08L9.2 39.9c.5-.2.74-.8.53-1.3zM54.48 38.8l-2.78-1.1c-.5-.22-1.1.03-1.3.54-.2.5.04 1.1.55 1.3l2.78 1.13c.13.05.25.07.38.07.4 0 .78-.24.94-.63.2-.5-.05-1.08-.56-1.3zM5.52 21.2l2.78 1.1c.12.06.25.1.37.1.4 0 .78-.25.93-.64.2-.5-.04-1.1-.55-1.3l-2.78-1.13c-.52-.2-1.1.04-1.3.56-.2.5.04 1.08.55 1.3zM39.9 50.78c-.2-.5-.8-.74-1.3-.53-.5.22-.75.8-.53 1.3l1.17 2.77c.16.38.53.6.92.6.13 0 .26 0 .4-.07.5-.2.73-.8.52-1.3l-1.17-2.77zM21 9.83c.14 0 .28-.03.4-.08.5-.22.75-.8.53-1.3l-1.17-2.77c-.2-.5-.8-.75-1.3-.53-.52.2-.76.8-.54 1.3l1.17 2.77c.15.38.52.6.9.6zM21.76 50.4c-.5-.2-1.1.04-1.3.55l-1.13 2.78c-.2.52.04 1.1.56 1.3.1.05.24.08.36.08.4 0 .77-.23.93-.62l1.1-2.78c.22-.5-.03-1.1-.54-1.3zM38.62 9.68c.4 0 .77-.24.92-.63l1.13-2.78c.2-.5-.04-1.1-.56-1.3-.5-.2-1.08.04-1.3.55L37.7 8.3c-.22.5.03 1.1.54 1.3.12.05.25.08.38.08z"/></g><circle cx="30" cy="30" r="20" fill="#F0C419"/><circle cx="30" cy="30" r="15" fill="#EDE21B"/></svg>