<svg xmlns="http://www.w3.org/2000/svg" viewBox="0 0 60 60"><path d="M36.12 14.73l-.96-1.6C32.08 8.04 26.7 5 20.8 5 11.52 5 4 12.53 4 21.8c0 5.28 2.54 10.32 6.8 13.47l.66.5.8.07c.53.06 1.04.17 1.5.32l4.97 1.6-1.12-5.1c-.26-1.22.04-2.46.82-3.4.76-.93 1.9-1.47 3.1-1.47.4 0 .8.06 1.17.17l2.68.9 1.05-2.64c.48-1.22 1.53-2.12 2.8-2.42.44-.1.93-.12 1.4-.06l3.5.42-.15-3.52-.02-.35c0-1.42.4-2.8 1.16-4l1-1.57z" fill="#F0C419"/><path d="M59.98 27h-.08c.03.3.06.6.06.93 0 .55-.45 1-1 1s-1-.45-1-1c0-3.3-2.7-6-6-6s-6 2.7-6 6c0 .55-.45 1-1 1s-1-.45-1-1c0-4.07 3.05-7.43 6.97-7.93-.22-5.04-4.38-9.07-9.47-9.07-5.1 0-9.28 4.06-9.48 9.12.82.2 1.63.52 2.37.98 1.82 1.13 3.1 2.9 3.58 4.97.13.54-.2 1.08-.74 1.2-.55.12-1.1-.2-1.22-.74-.76-3.22-4-5.23-7.2-4.47-3.23.75-5.24 4-4.48 7.2.13.54-.2 1.08-.74 1.2-.08.03-.16.04-.23.04-.46 0-.87-.32-.98-.78-.3-1.25-.26-2.5.02-3.67-2.06-.3-4.14.47-5.5 2.1-1.25 1.54-1.62 3.5-1.17 5.3v.03c.3 1.2.98 2.3 2 3.13.42.35.48.98.13 1.4-.2.25-.5.37-.77.37-.23 0-.45-.07-.64-.23-1.22-1-2.1-2.3-2.55-3.78-4.04-1.05-8.3.65-10.5 4.26-1.3 2.17-1.7 4.72-1.1 7.2.6 2.45 2.13 4.54 4.3 5.86.47.28.62.9.34 1.37-.18.32-.5.5-.85.5-.13 0-.26-.05-.4-.1 1.6.93 3.4 1.5 5.35 1.6h8.2c5.32-.1 9.86-3.37 11.8-8 1.97 4.7 6.6 8 12 8 9.38 0 17-7.62 17-17V28l-.02-1z" fill="#D0E8F9"/><path d="M52.94 20.07C52.7 13.93 47.64 9 41.46 9 35.32 9 30.3 13.85 30 19.9c-.57.02-1.13.1-1.7.22-2.32.55-4.17 2.08-5.22 4.05-2.88-.58-5.84.44-7.75 2.74-1.25 1.54-1.88 3.42-1.8 5.37-4.64-.83-9.35 1.23-11.85 5.35-1.6 2.62-2.07 5.7-1.35 8.7s2.58 5.5 5.2 7.1c.17.1.35.14.52.14.34 0 .67-.17.86-.48.3-.47.15-1.08-.33-1.37-2.17-1.3-3.7-3.4-4.3-5.86-.6-2.46-.2-5 1.12-7.18 2.18-3.62 6.43-5.32 10.48-4.26.46 1.47 1.33 2.78 2.54 3.78.2.15.4.23.64.23.3 0 .57-.12.77-.36.35-.43.3-1.06-.14-1.4-1.02-.84-1.68-1.95-2-3.13v-.03c-.45-1.78-.08-3.75 1.18-5.28 1.35-1.66 3.43-2.44 5.5-2.13-.3 1.17-.32 2.42-.02 3.67.1.46.52.77.97.77.08 0 .15 0 .23-.02.54-.12.87-.66.74-1.2-.75-3.22 1.25-6.45 4.47-7.2C32 21.3 35.23 23.3 36 26.52c.1.54.65.87 1.2.75.53-.13.86-.67.73-1.2-.5-2.08-1.76-3.85-3.57-4.97-.75-.46-1.55-.78-2.38-.98.2-5.06 4.37-9.12 9.48-9.12 5.1 0 9.25 4.03 9.48 9.07-3.93.5-6.98 3.87-6.98 7.93 0 .55.45 1 1 1s1-.45 1-1c0-3.3 2.7-6 6-6S58 24.7 58 28v3c0 .55.45 1 1 1s1-.45 1-1v-3c0-4.08-3.1-7.45-7.06-7.93z" fill="#ABCADD"/><path d="M43 55c-4.97 0-9.5-2.6-12-6.8-2.5 4.2-7.02 6.8-12 6.8-.55 0-1-.44-1-1s.45-1 1-1c4.86 0 9.2-2.9 11.08-7.38l.92-2.2.93 2.2C33.8 50.1 38.15 53 43 53c.56 0 1 .45 1 1s-.44 1-1 1zM54.9 40.88c-.46-3.98-3.84-7.1-7.94-7.1-4.4 0-8 3.6-8 8 0 .57.45 1 1 1s1-.43 1-1c0-3.3 2.7-6 6-6 3 0 5.5 2.23 5.92 5.12-2.8.5-4.92 2.95-4.92 5.9 0 .55.45 1 1 1s1-.45 1-1c0-2.2 1.8-4 4-4s4 1.8 4 4c0 .55.45 1 1 1s1-.45 1-1c0-3-2.2-5.47-5.06-5.92z" fill="#ABCADD"/></svg>