<svg xmlns="http://www.w3.org/2000/svg" viewBox="0 0 60 60"><path d="M52.94 17.53c-.23-6.14-5.3-11.07-11.48-11.07-6.14 0-11.16 4.85-11.47 10.9-.57.03-1.13.1-1.7.22-2.32.55-4.17 2.1-5.22 4.06-2.88-.6-5.84.43-7.75 2.74-1.25 1.52-1.88 3.4-1.8 5.36-4.64-.84-9.35 1.22-11.85 5.34-1.6 2.63-2.07 5.7-1.35 8.7s2.58 5.5 5.2 7.1c.17.1.35.15.52.15.34 0 .67-.17.86-.48.3-.48.15-1.1-.33-1.38-2.17-1.32-3.7-3.4-4.3-5.86-.6-2.46-.2-5 1.12-7.18 2.18-3.6 6.43-5.3 10.48-4.26.46 1.47 1.33 2.78 2.54 3.78.2.15.4.23.64.23.3 0 .57-.13.77-.37.35-.42.3-1.05-.14-1.4-1.02-.84-1.68-1.95-2-3.13v-.04c-.45-1.78-.08-3.75 1.18-5.28 1.35-1.65 3.43-2.42 5.5-2.12-.3 1.17-.32 2.42-.02 3.67.1.46.52.77.97.77.08 0 .15 0 .23-.02.54-.13.87-.67.74-1.2-.75-3.23 1.25-6.46 4.47-7.22C32 18.77 35.23 20.77 36 24c.1.53.65.86 1.2.74.53-.13.86-.66.73-1.2-.5-2.08-1.76-3.85-3.57-4.97-.75-.46-1.55-.8-2.38-.98.2-5.08 4.37-9.14 9.48-9.14 5.1 0 9.25 4.04 9.48 9.08-3.93.5-6.98 3.86-6.98 7.92 0 .56.45 1 1 1s1-.44 1-1c0-3.3 2.7-6 6-6s6 2.7 6 6c0 .56.45 1 1 1s1-.44 1-1c0-4.07-3.07-7.45-7.02-7.93z" fill="#ABCADD"/><path d="M59.98 24.54h-.08c.03.3.06.6.06.92 0 .56-.45 1-1 1s-1-.44-1-1c0-3.3-2.7-6-6-6s-6 2.7-6 6c0 .56-.45 1-1 1s-1-.44-1-1c0-4.06 3.05-7.42 6.97-7.92-.22-5.04-4.38-9.08-9.47-9.08-5.1 0-9.28 4.06-9.48 9.13.82.18 1.63.5 2.37.97 1.82 1.12 3.1 2.9 3.58 4.97.13.54-.2 1.07-.74 1.2-.55.12-1.1-.2-1.22-.74-.76-3.22-4-5.23-7.2-4.47-3.23.76-5.24 4-4.48 7.22.13.53-.2 1.07-.74 1.2-.08.02-.16.02-.23.02-.46 0-.87-.3-.98-.77-.3-1.25-.26-2.5.02-3.67-2.06-.3-4.14.47-5.5 2.12-1.25 1.53-1.62 3.5-1.17 5.3v.02c.3 1.2.98 2.3 2 3.13.42.35.48.98.13 1.4-.2.24-.5.37-.77.37-.23 0-.45-.08-.64-.23-1.22-1-2.1-2.3-2.55-3.78-4.04-1.05-8.3.65-10.5 4.26-1.3 2.17-1.7 4.72-1.1 7.2.6 2.45 2.13 4.54 4.3 5.85.47.3.62.9.34 1.38-.18.3-.5.48-.85.48-.13 0-.26-.04-.4-.1 1.6.94 3.4 1.52 5.35 1.6h32c9.38 0 17-7.62 17-17v-10l-.02-1z" fill="#D0E8F9"/><path d="M54 43.54c0-3.87-3.13-7-7-7s-7 3.13-7 7 3.14 7 7 7c.8 0 1.57-.14 2.3-.4.66 1.98 2.5 3.4 4.7 3.4 2.76 0 5-2.24 5-5s-2.23-5-5-5z" fill="#BFDDEF"/><path d="M54.95 42.62c-.46-3.98-3.85-7.08-7.95-7.08-4.4 0-8 3.6-8 8 0 .55.45 1 1 1s1-.45 1-1c0-3.3 2.7-6 6-6 3 0 5.5 2.22 5.93 5.1-2.8.5-4.93 2.96-4.93 5.9 0 .55.45 1 1 1s1-.45 1-1c0-2.2 1.8-4 4-4s4 1.8 4 4c0 .55.45 1 1 1s1-.45 1-1c0-3-2.2-5.46-5.05-5.92z" fill="#ABCADD"/></svg>