<svg xmlns="http://www.w3.org/2000/svg" viewBox="0 0 51.19 51.19"><g fill="#D0E8F9"><path d="M24.37 30.77c-.48-.27-1.1-.1-1.36.4l-2.05 3.7c-.27.48-.1 1.1.4 1.36.15.08.3.12.48.12.35 0 .7-.2.87-.5l2.06-3.73c.26-.48.1-1.1-.4-1.35zM27.12 23.73l-2.06 3.72c-.26.48-.1 1.1.4 1.35.15.1.3.13.48.13.35 0 .7-.2.87-.52l2.07-3.7c.27-.48.1-1.1-.4-1.36-.47-.26-1.08-.1-1.35.4zM27.8 39.14c-.47-.27-1.08-.1-1.35.4l-2.06 3.7c-.28.5-.1 1.1.38 1.36.16.1.32.13.5.13.34 0 .68-.2.86-.52l2.06-3.7c.27-.48.1-1.1-.4-1.36zM31.92 31.72c-.48-.27-1.1-.1-1.36.4l-2.05 3.7c-.26.48-.1 1.1.4 1.36.15.08.32.12.48.12.35 0 .7-.18.88-.5l2.05-3.72c.28-.48.1-1.1-.38-1.36zM16.8 29.8c-.47-.26-1.08-.08-1.35.4l-2.05 3.7c-.27.5-.1 1.1.4 1.37.14.1.3.13.47.13.35 0 .7-.2.88-.52l2.05-3.7c.27-.5.1-1.1-.4-1.37zM12.7 37.23c-.5-.27-1.1-.1-1.36.4l-2.06 3.7c-.27.5-.1 1.1.4 1.36.15.08.3.12.48.12.35 0 .7-.2.87-.52l2.06-3.7c.26-.5.08-1.1-.4-1.37zM20.25 38.2c-.48-.28-1.1-.1-1.36.38l-2.06 3.7c-.27.5-.1 1.1.4 1.37.14.08.3.12.47.12.36 0 .7-.18.9-.5l2.04-3.72c.27-.5.1-1.1-.4-1.36zM16.14 45.6c-.48-.26-1.1-.1-1.36.4l-2.06 3.7c-.27.5-.1 1.1.4 1.37.15.08.3.12.48.12.35 0 .7-.2.87-.52l2.06-3.7c.27-.5.1-1.1-.4-1.37zM20.93 22.4c-.5-.28-1.1-.1-1.36.38l-2.06 3.7c-.26.5-.08 1.1.4 1.37.15.08.32.12.48.12.36 0 .7-.18.88-.5l2.06-3.72c.26-.48.1-1.1-.4-1.36zM39.48 32.67c-.48-.26-1.1-.1-1.36.4l-2.06 3.7c-.27.5-.1 1.1.4 1.36.15.1.3.13.48.13.35 0 .7-.2.87-.52l2.07-3.7c.27-.5.1-1.1-.4-1.37zM43.6 25.25c-.5-.26-1.1-.1-1.37.4l-2.05 3.7c-.27.5-.1 1.1.4 1.36.14.1.3.14.47.14.35 0 .7-.2.88-.52l2.05-3.7c.27-.5.1-1.1-.4-1.37zM33.68 13.96c.15.1.32.13.48.13.36 0 .7-.2.88-.53l2.06-3.7c.27-.5.1-1.1-.4-1.37-.48-.27-1.08-.1-1.35.4l-2.06 3.7c-.28.5-.1 1.1.38 1.36zM37.8 6.54c.15.1.32.13.48.13.35 0 .7-.2.88-.52l2.05-3.7c.28-.5.1-1.1-.38-1.37s-1.1-.1-1.36.4l-2.05 3.7c-.26.48-.1 1.1.4 1.36zM36.04 24.3c-.5-.27-1.1-.1-1.36.4l-2.06 3.7c-.27.48-.1 1.1.4 1.36.14.08.3.12.47.12.35 0 .7-.18.87-.5l2.06-3.72c.27-.48.1-1.1-.4-1.36zM38.8 17.27l-2.07 3.7c-.26.5-.1 1.1.4 1.37.15.08.3.12.48.12.36 0 .7-.2.88-.5l2.06-3.72c.27-.5.1-1.1-.4-1.36-.47-.27-1.08-.1-1.35.4zM26.13 13c.15.1.32.13.48.13.36 0 .7-.18.9-.5l2.04-3.72c.27-.48.1-1.1-.4-1.35-.47-.27-1.08-.1-1.35.4l-2.06 3.7c-.27.48-.1 1.1.4 1.36zM22 20.43c.17.08.33.12.5.12.35 0 .7-.18.87-.5l2.06-3.72c.27-.48.1-1.1-.4-1.36-.47-.27-1.08-.1-1.35.4l-2.06 3.7c-.27.48-.1 1.1.4 1.36zM10.63 26.38c-.5-.27-1.1-.1-1.36.4l-2.06 3.7c-.26.5-.08 1.1.4 1.36.16.1.32.13.5.13.34 0 .68-.2.86-.52l2.06-3.7c.27-.5.1-1.1-.4-1.37zM11.7 24.42c.17.1.33.13.5.13.35 0 .7-.2.87-.52l2.06-3.7c.27-.5.1-1.1-.4-1.37-.47-.27-1.08-.1-1.35.4l-2.06 3.7c-.26.5-.1 1.1.4 1.36zM19.94 9.58c.15.08.32.12.48.12.36 0 .7-.18.88-.5l2.06-3.72c.27-.5.1-1.1-.4-1.36-.48-.27-1.08-.1-1.35.4l-2.05 3.7c-.27.48-.1 1.1.4 1.36zM15.83 17c.15.1.32.13.48.13.36 0 .7-.2.9-.52l2.05-3.7c.26-.48.1-1.1-.4-1.36-.48-.27-1.1-.1-1.36.4l-2.06 3.7c-.27.48-.1 1.1.4 1.36zM31.23 16.3l-2.05 3.72c-.27.5-.1 1.1.4 1.36.14.1.3.13.47.13.35 0 .7-.18.88-.5L33 17.27c.25-.48.08-1.1-.4-1.36-.5-.27-1.1-.1-1.37.4zM30.24 5.6c.15.07.32.1.48.1.36 0 .7-.17.88-.5l2.06-3.7c.27-.5.1-1.1-.4-1.37-.47-.27-1.1-.1-1.35.4l-2.05 3.7c-.27.48-.1 1.1.4 1.36z"/></g></svg>