<svg xmlns="http://www.w3.org/2000/svg" viewBox="0 0 52.66 52.66"><path d="M25.08 30.76c-5.66 5.66-14.84 5.66-20.5 0-5.67-5.66-5.67-14.84 0-20.5L14.82 0l10.25 10.25c5.66 5.67 5.66 14.85 0 20.5z" fill="#0096E6"/><path d="M49.98 35.66c-3.12 3.12-8.18 3.12-11.3 0-3.13-3.13-3.13-8.2 0-11.32l5.65-5.65L50 24.33c3.1 3.13 3.1 8.2-.02 11.32z" fill="#D0E8F9"/><path d="M31.16 51.48c-1.57 1.57-4.1 1.57-5.66 0-1.56-1.56-1.56-4.1 0-5.65L28.33 43l2.83 2.83c1.56 1.56 1.56 4.1 0 5.66z" fill="#E4ECF4"/><circle cx="9.33" cy="27.01" r="6" fill="#D0E8F9"/></svg>