<svg xmlns="http://www.w3.org/2000/svg" viewBox="0 0 52 52"><path d="M51 25h-2.6l2.3-2.3c.4-.38.4-1.02 0-1.4s-1.02-.4-1.4 0L45.6 25h-5.2l2.3-2.3c.4-.38.4-1.02 0-1.4s-1.02-.4-1.4 0L37.6 25h-9.2l11-11H45c.55 0 1-.45 1-1s-.45-1-1-1h-3.6l3.3-3.3c.4-.38.4-1.02 0-1.4s-1.02-.4-1.4 0L40 10.6V7c0-.55-.45-1-1-1s-1 .45-1 1v5.6l-11 11v-9.2l3.7-3.7c.4-.38.4-1.02 0-1.4s-1.02-.4-1.4 0L27 11.6V6.4l3.7-3.7c.4-.38.4-1.02 0-1.4s-1.02-.4-1.4 0L27 3.6V1c0-.55-.45-1-1-1s-1 .45-1 1v2.6l-2.3-2.3c-.38-.4-1.02-.4-1.4 0s-.4 1.02 0 1.4L25 6.4v5.2l-2.3-2.3c-.38-.4-1.02-.4-1.4 0s-.4 1.02 0 1.4l3.7 3.7v9.2l-11-11V7c0-.55-.45-1-1-1s-1 .45-1 1v3.6L8.7 7.3c-.38-.4-1.02-.4-1.4 0s-.4 1.02 0 1.4l3.3 3.3H7c-.55 0-1 .45-1 1s.45 1 1 1h5.6l11 11h-9.2l-3.7-3.7c-.38-.4-1.02-.4-1.4 0s-.4 1.02 0 1.4l2.3 2.3H6.4l-3.7-3.7c-.38-.4-1.02-.4-1.4 0s-.4 1.02 0 1.4L3.6 25H1c-.55 0-1 .45-1 1s.45 1 1 1h2.6l-2.3 2.3c-.4.38-.4 1.02 0 1.4.2.2.44.3.7.3s.5-.1.7-.3L6.4 27h5.2l-2.3 2.3c-.4.38-.4 1.02 0 1.4.2.2.44.3.7.3s.5-.1.7-.3l3.7-3.7h9.2l-11 11H7c-.55 0-1 .45-1 1s.45 1 1 1h3.6l-3.3 3.3c-.4.38-.4 1.02 0 1.4.2.2.44.3.7.3s.5-.1.7-.3l3.3-3.3V45c0 .55.45 1 1 1s1-.45 1-1v-5.6l11-11v9.2l-3.7 3.7c-.4.38-.4 1.02 0 1.4.2.2.44.3.7.3s.5-.1.7-.3l2.3-2.3v5.2l-3.7 3.7c-.4.38-.4 1.02 0 1.4.2.2.44.3.7.3s.5-.1.7-.3l2.3-2.3V51c0 .55.45 1 1 1s1-.45 1-1v-2.6l2.3 2.3c.2.2.44.3.7.3s.5-.1.7-.3c.4-.38.4-1.02 0-1.4L27 45.6v-5.2l2.3 2.3c.2.2.44.3.7.3s.5-.1.7-.3c.4-.38.4-1.02 0-1.4L27 37.6v-9.2l11 11V45c0 .55.45 1 1 1s1-.45 1-1v-3.6l3.3 3.3c.2.2.44.3.7.3s.5-.1.7-.3c.4-.38.4-1.02 0-1.4L41.4 40H45c.55 0 1-.45 1-1s-.45-1-1-1h-5.6l-11-11h9.2l3.7 3.7c.2.2.44.3.7.3s.5-.1.7-.3c.4-.38.4-1.02 0-1.4L40.4 27h5.2l3.7 3.7c.2.2.44.3.7.3s.5-.1.7-.3c.4-.38.4-1.02 0-1.4L48.4 27H51c.55 0 1-.45 1-1s-.45-1-1-1z" fill="#E4ECF4"/></svg>