<svg xmlns="http://www.w3.org/2000/svg" viewBox="0 0 215 215"><g fill="#010002"><path d="M209.95 76.25H5.05C2.28 76.25 0 79.4 0 83.27c0 3.87 2.27 7 5.06 7h204.88c2.8 0 5.06-3.13 5.06-7 0-3.88-2.27-7.02-5.05-7.02zM5.06 52.88h204.88c2.8 0 5.06-3.13 5.06-7 0-3.88-2.27-7.02-5.06-7.02H5.06c-2.8 0-5.06 3.14-5.06 7 0 3.9 2.27 7.02 5.06 7.02zM209.95 118.3H5.05c-2.78 0-5.05 3.15-5.05 7.02 0 3.87 2.27 7 5.06 7h204.88c2.8 0 5.06-3.13 5.06-7 0-3.88-2.27-7-5.05-7zM209.95 162.12H5.05c-2.78 0-5.05 3.14-5.05 7 0 3.88 2.27 7.02 5.06 7.02h204.88c2.8 0 5.06-3.13 5.06-7 0-3.9-2.27-7.02-5.05-7.02z"/></g></svg>